<svg xmlns="http://www.w3.org/2000/svg" width="1200" height="630" viewBox="0 0 1200 630" role="img" aria-labelledby="title desc">
  <title id="title">Portfolio preview image</title>
  <desc id="desc">Dark portfolio preview with cyan, emerald, and amber accents.</desc>
  <defs>
    <linearGradient id="bg" x1="0" y1="0" x2="1" y2="1">
      <stop offset="0%" stop-color="#08121d"/>
      <stop offset="55%" stop-color="#101827"/>
      <stop offset="100%" stop-color="#151a22"/>
    </linearGradient>
    <linearGradient id="accent" x1="0" y1="0" x2="1" y2="0">
      <stop offset="0%" stop-color="#22d3ee"/>
      <stop offset="55%" stop-color="#10b981"/>
      <stop offset="100%" stop-color="#f59e0b"/>
    </linearGradient>
  </defs>
  <rect width="1200" height="630" fill="url(#bg)"/>
  <path d="M0 118H1200M0 236H1200M0 354H1200M0 472H1200M150 0V630M300 0V630M450 0V630M600 0V630M750 0V630M900 0V630M1050 0V630" stroke="#22d3ee" stroke-opacity="0.08"/>
  <rect x="100" y="96" width="1000" height="438" rx="28" fill="#121a26" fill-opacity="0.82" stroke="#2d3a4e"/>
  <rect x="140" y="138" width="230" height="34" rx="17" fill="#22d3ee" fill-opacity="0.14"/>
  <text x="160" y="162" fill="#a5f3fc" font-family="Inter, Segoe UI, Arial, sans-serif" font-size="18" font-weight="700">OPEN TO OPPORTUNITIES</text>
  <text x="140" y="265" fill="#f8fafc" font-family="Inter, Segoe UI, Arial, sans-serif" font-size="72" font-weight="800">Andrei Rosca</text>
  <text x="140" y="325" fill="#a4b0c4" font-family="Inter, Segoe UI, Arial, sans-serif" font-size="34" font-weight="600">IT Support Specialist | Junior Web Developer</text>
  <text x="140" y="384" fill="#a4b0c4" font-family="Inter, Segoe UI, Arial, sans-serif" font-size="26">React - TypeScript - PHP - MySQL - Tailwind</text>
  <rect x="140" y="445" width="280" height="8" rx="4" fill="url(#accent)"/>
</svg>
